<svg width="100%" height="100%" viewBox="0 0 600 600">

  <defs>
    <symbol id="star" viewBox="0 0 600 600" overflow="visible">
      <path d="M300,0L320,212.3L430.2,29.7L356.1,229.6L534.5,113L381.1,261L592.5,233.2L390,300L592.5,366.8L381.1,339L534.5,487L356.1,370.4L430.2,570.3L320,387.7L300,600L280,387.7L169.8,570.3L243.9,370.4L65.5,487L218.9,339L7.5,366.8L210,300L7.5,233.2L218.9,261L65.5,113L243.9,229.6L169.8,29.7L280,212.3L300,0z"/>
    </symbol>
    <symbol id="starshadow" viewBox="0 0 600 600" overflow="visible">
      <path d="M300,300L300,0L320,212.3L300,300zL430.2,29.7L356.1,229.6L300,300zL534.5,113L381.1,261L300,300zL592.5,233.2L390,300L300,300zL592.5,366.8L381.1,339L300,300zL534.5,487L356.1,370.4L300,300zL430.2,570.3L320,387.7L300,300zL300,600L280,387.7L300,300zL169.8,570.3L243.9,370.4L300,300zL65.5,487L218.9,339L300,300zL7.5,366.8L210,300L300,300zL7.5,233.2L218.9,261L300,300zL65.5,113L243.9,229.6L300,300zL169.8,29.7L280,212.3L300,300z"/>
    </symbol>
  </defs>

  <use width="600" height="600" xlink:href="#star" style="fill:#FFD700;stroke:none;"/>
  <use width="600" height="600" xlink:href="#starshadow" style="fill:black;fill-opacity:0.2;stroke:none;"/>

</svg>